<svg id="svg" version="1.1" xmlns="http://www.w3.org/2000/svg" xmlns:xlink="http://www.w3.org/1999/xlink" width="400" height="641.8604651162791" viewBox="0, 0, 400,641.8604651162791"><g id="svgg"><path id="path0" d="M254.200 73.200 C 254.037 73.463,235.663 73.600,200.376 73.600 L 146.800 73.600 146.800 119.200 L 146.800 164.800 161.567 164.800 C 169.689 164.800,176.619 164.909,176.967 165.043 C 177.939 165.416,177.939 476.184,176.967 476.557 C 176.619 476.691,169.689 476.800,161.567 476.800 L 146.800 476.800 146.800 522.400 L 146.800 568.000 200.376 568.000 C 235.663 568.000,254.037 568.137,254.200 568.400 C 254.358 568.656,260.137 568.800,270.224 568.800 L 286.000 568.800 286.000 522.633 C 286.000 497.241,285.891 476.181,285.757 475.833 C 285.542 475.271,283.810 475.200,270.357 475.200 L 255.200 475.200 255.200 320.800 L 255.200 166.400 270.357 166.400 C 283.810 166.400,285.542 166.329,285.757 165.767 C 285.891 165.419,286.000 144.359,286.000 118.967 L 286.000 72.800 270.224 72.800 C 260.137 72.800,254.358 72.944,254.200 73.200 " stroke="none" fill="#646464" fill-rule="evenodd"></path><path id="path1" d="M114.098 119.500 L 114.200 166.200 129.500 166.305 L 144.800 166.410 144.800 320.800 L 144.800 475.190 129.500 475.295 L 114.200 475.400 114.098 522.100 L 113.997 568.800 130.098 568.800 L 146.200 568.800 146.200 522.500 L 146.200 476.200 161.400 476.000 L 176.600 475.800 176.600 320.800 L 176.600 165.800 161.400 165.600 L 146.200 165.400 146.200 119.100 L 146.200 72.800 130.098 72.800 L 113.997 72.800 114.098 119.500 " stroke="none" fill="#04fbcb" fill-rule="evenodd"></path><path id="path2" d="M200.000 73.198 L 146.600 73.400 146.597 119.300 L 146.595 165.200 146.699 119.400 L 146.803 73.600 200.178 73.600 C 235.330 73.600,253.637 73.463,253.800 73.200 C 253.936 72.980,253.902 72.844,253.724 72.898 C 253.546 72.952,229.370 73.087,200.000 73.198 M176.998 320.800 C 176.998 406.490,177.044 441.545,177.100 398.700 C 177.156 355.855,177.156 285.745,177.100 242.900 C 177.044 200.055,176.998 235.110,176.998 320.800 M146.498 522.113 C 146.420 558.548,146.503 568.064,146.900 568.212 C 147.752 568.531,253.935 568.618,253.738 568.300 C 253.636 568.135,229.534 568.000,200.178 568.000 L 146.803 568.000 146.700 522.100 L 146.597 476.200 146.498 522.113 " stroke="none" fill="#4c9c84" fill-rule="evenodd"></path><path id="path3" d="M146.184 73.300 C 146.080 73.575,146.040 94.410,146.097 119.600 L 146.200 165.400 161.500 165.600 C 169.915 165.710,176.800 165.665,176.800 165.500 C 176.800 165.335,169.959 165.200,161.598 165.200 L 146.397 165.200 146.498 119.300 L 146.600 73.400 200.000 73.198 L 253.400 72.996 199.887 72.898 C 157.373 72.820,146.336 72.903,146.184 73.300 M161.400 475.993 L 146.200 476.200 146.200 522.400 L 146.200 568.600 199.800 568.603 L 253.400 568.606 200.000 568.403 L 146.600 568.200 146.498 522.300 L 146.397 476.400 161.598 476.400 C 171.466 476.400,176.800 476.260,176.800 476.000 C 176.800 475.780,176.755 475.642,176.700 475.693 C 176.645 475.744,169.760 475.879,161.400 475.993 " stroke="none" fill="#3cbc9c" fill-rule="evenodd"></path><path id="path4" d="M154.326 165.100 C 158.576 165.164,165.416 165.164,169.526 165.099 C 173.637 165.034,170.160 164.981,161.800 164.981 C 153.440 164.982,150.077 165.035,154.326 165.100 M177.398 320.800 C 177.398 406.490,177.444 441.545,177.500 398.700 C 177.556 355.855,177.556 285.745,177.500 242.900 C 177.444 200.055,177.398 235.110,177.398 320.800 M154.326 476.700 C 158.576 476.764,165.416 476.764,169.526 476.699 C 173.637 476.634,170.160 476.581,161.800 476.581 C 153.440 476.582,150.077 476.635,154.326 476.700 " stroke="none" fill="#688870" fill-rule="evenodd"></path></g></svg>